<svg id="Capa_1" data-name="Capa 1" xmlns="http://www.w3.org/2000/svg" viewBox="0 0 72 65.43"><title>e</title><path d="M5.62,48.08A.6.6,0,0,1,5.33,48a.59.59,0,0,1-.28-.36L1,32.58a.6.6,0,0,1,.42-.73L7.63,30.2a.59.59,0,0,1,.45.06.58.58,0,0,1,.27.36l4,15.06a.59.59,0,0,1-.42.72L5.77,48.06ZM2.32,32.84,6,46.76l5.05-1.35L7.36,31.49Z" transform="translate(-1 -4.29)"/><path d="M43,45.74h0l-31.56-.8a.59.59,0,0,1-.56-.44L7.6,32.4a.6.6,0,0,1,.26-.66L34.8,15.27a.6.6,0,0,1,.62,0,.58.58,0,0,1,.27.56A44.08,44.08,0,0,0,37.22,31a44,44,0,0,0,6.17,13.76.57.57,0,0,1,.2.44A.59.59,0,0,1,43,45.74Zm-31.13-2,30,.76a46.42,46.42,0,0,1-5.75-13.27,46.22,46.22,0,0,1-1.65-14.37L8.86,32.52Z" transform="translate(-1 -4.29)"/><path d="M51.88,51.89h0c-5.72,0-12.41-8.9-15.58-20.7-3.51-13.1-1.55-24.63,4.47-26.25a5.51,5.51,0,0,1,1.41-.18c5.72,0,12.42,8.89,15.57,20.69,3.52,13.11,1.56,24.64-4.45,26.25A5.23,5.23,0,0,1,51.88,51.89ZM42.18,5.94a4.42,4.42,0,0,0-1.1.14c-5.2,1.4-6.87,12.76-3.63,24.81,3,11.11,9.32,19.82,14.43,19.82h0A4.13,4.13,0,0,0,53,50.56c5.19-1.39,6.85-12.75,3.62-24.8C53.64,14.64,47.3,5.94,42.18,5.94Z" transform="translate(-1 -4.29)"/><path d="M55.91,49.86a.76.76,0,0,1-.21,0C50.48,47.9,45.13,39.76,42.4,29.56S40.23,9.64,43.79,5.35a.59.59,0,0,1,.66-.17C49.67,7.1,55,15.25,57.75,25.45s2.18,19.93-1.39,24.2A.57.57,0,0,1,55.91,49.86ZM44.44,6.45c-3,4.13-3.42,13.39-.9,22.81S51,46.51,55.71,48.56c3-4.12,3.43-13.37.9-22.8S49.13,8.5,44.44,6.45Z" transform="translate(-1 -4.29)"/><path d="M43.76,32.69a.58.58,0,0,1-.56-.41c-.32-1-.58-1.89-.8-2.72s-.46-1.78-.66-2.76a.57.57,0,0,1,.33-.65,12.62,12.62,0,0,1,2.18-.78,13.27,13.27,0,0,1,3.45-.48c2.37,0,4,.78,4.36,2.09.27,1-.26,2.12-1.5,3.14a12.13,12.13,0,0,1-4.46,2.15,15.1,15.1,0,0,1-2.29.42ZM43,27c.17.78.34,1.51.54,2.23s.39,1.4.64,2.2a13.72,13.72,0,0,0,1.62-.33,10.87,10.87,0,0,0,4-1.93c.84-.69,1.25-1.39,1.1-1.91-.19-.73-1.49-1.22-3.21-1.22a12.24,12.24,0,0,0-3.14.44A12.41,12.41,0,0,0,43,27Z" transform="translate(-1 -4.29)"/><path d="M26.54,65.81A.61.61,0,0,1,26,65.5L14.57,44.73a.59.59,0,0,1,0-.6.62.62,0,0,1,.53-.28l7,.35a.59.59,0,0,1,.49.31l10,18a.62.62,0,0,1,.05.48.65.65,0,0,1-.33.36l-5.61,2.39A.59.59,0,0,1,26.54,65.81ZM16.12,45.09,26.8,64.46l4.51-1.92L21.76,45.37Z" transform="translate(-1 -4.29)"/><path d="M14.83,37.54a.59.59,0,0,1-.57-.44.6.6,0,0,1,.42-.72l18.53-5a.6.6,0,0,1,.73.42.6.6,0,0,1-.42.72L15,37.52A.41.41,0,0,1,14.83,37.54Z" transform="translate(-1 -4.29)"/><path d="M64.8,22.76a.59.59,0,0,1-.15-1.16L70.77,20a.59.59,0,1,1,.31,1.14L65,22.74Z" transform="translate(-1 -4.29)"/><path d="M72.41,30.28H66.08a.59.59,0,0,1,0-1.18h6.33a.59.59,0,1,1,0,1.18Z" transform="translate(-1 -4.29)"/><path d="M71.47,39.51a.47.47,0,0,1-.16,0L65.2,37.86a.6.6,0,0,1,.31-1.15l6.11,1.64a.59.59,0,0,1-.15,1.16Z" transform="translate(-1 -4.29)"/><path d="M56.79,10a.59.59,0,0,1-.42-.18.59.59,0,0,1,0-.83l4.48-4.48a.59.59,0,0,1,.84.84L57.21,9.77A.59.59,0,0,1,56.79,10Z" transform="translate(-1 -4.29)"/><path d="M61.64,15.83a.6.6,0,0,1-.3-1.11l5.49-3.16a.6.6,0,0,1,.81.22.59.59,0,0,1-.22.81l-5.49,3.16A.6.6,0,0,1,61.64,15.83Z" transform="translate(-1 -4.29)"/><path d="M55.12,66.59H4.42a.6.6,0,0,1,0-1.19h50.7a.6.6,0,0,1,0,1.19Z" transform="translate(-1 -4.29)"/><path d="M66.2,69.71H15.51a.59.59,0,0,1-.59-.59.6.6,0,0,1,.59-.59H66.2a.59.59,0,0,1,.59.59A.58.58,0,0,1,66.2,69.71Z" transform="translate(-1 -4.29)"/></svg>