<svg id="Capa_1" data-name="Capa 1" xmlns="http://www.w3.org/2000/svg" viewBox="0 0 72 70"><title>b</title><path d="M67.24,49.6H6.77a.59.59,0,0,1-.59-.6V13.59A.59.59,0,0,1,6.77,13H67.24a.6.6,0,0,1,.59.59V49A.6.6,0,0,1,67.24,49.6ZM7.36,48.41H66.64V14.19H7.36Z" transform="translate(-1 -2)"/><path d="M72.41,14.19H1.59a.59.59,0,0,1-.59-.6V8.5a.58.58,0,0,1,.59-.59H72.41A.58.58,0,0,1,73,8.5v5.09A.59.59,0,0,1,72.41,14.19ZM2.18,13H71.82V9.09H2.18Z" transform="translate(-1 -2)"/><path d="M53,44.17H48.78a.6.6,0,0,1-.6-.6V22a.59.59,0,0,1,.6-.59H53a.58.58,0,0,1,.59.59V43.57A.59.59,0,0,1,53,44.17ZM49.37,43h3.06V22.6H49.37Z" transform="translate(-1 -2)"/><path d="M46.07,44.17H41.83a.59.59,0,0,1-.59-.6V24.68a.58.58,0,0,1,.59-.59h4.24a.59.59,0,0,1,.6.59V43.57A.6.6,0,0,1,46.07,44.17ZM42.42,43h3.06V25.27H42.42Z" transform="translate(-1 -2)"/><path d="M39.13,44.17H34.88a.6.6,0,0,1-.59-.6V27.28a.6.6,0,0,1,.59-.59h4.25a.6.6,0,0,1,.59.59V43.57A.6.6,0,0,1,39.13,44.17ZM35.47,43h3.07V27.87H35.47Z" transform="translate(-1 -2)"/><path d="M32.18,44.17H27.93a.6.6,0,0,1-.59-.6V30.9a.6.6,0,0,1,.59-.59h4.25a.59.59,0,0,1,.59.59V43.57A.59.59,0,0,1,32.18,44.17ZM28.52,43h3.07V31.49H28.52Z" transform="translate(-1 -2)"/><path d="M25.23,44.17H21a.6.6,0,0,1-.59-.6v-8.9a.6.6,0,0,1,.59-.59h4.25a.59.59,0,0,1,.59.59v8.9A.59.59,0,0,1,25.23,44.17ZM21.58,43h3.06V35.26H21.58Z" transform="translate(-1 -2)"/><path d="M55.91,46.79H18.1a.59.59,0,0,1,0-1.18H55.91a.59.59,0,0,1,0,1.18Z" transform="translate(-1 -2)"/><path d="M21,31.5a.58.58,0,0,1-.55-.39.6.6,0,0,1,.35-.76c.16-.05,16-5.81,22.92-13.89a.59.59,0,0,1,.83-.06.58.58,0,0,1,.06.83c-7.14,8.32-22.74,14-23.41,14.24A.64.64,0,0,1,21,31.5Z" transform="translate(-1 -2)"/><path d="M44.07,21.06a.6.6,0,0,1-.59-.59V17.54l-2.75,0h0a.6.6,0,0,1,0-1.19h3.34a.6.6,0,0,1,.42.17.59.59,0,0,1,.17.42v3.52A.59.59,0,0,1,44.07,21.06Z" transform="translate(-1 -2)"/><path d="M39.3,9.09H34.71a.6.6,0,0,1-.6-.59V4.9a2.89,2.89,0,1,1,5.78,0V8.5A.59.59,0,0,1,39.3,9.09Zm-4-1.18h3.41v-3a1.71,1.71,0,1,0-3.41,0Z" transform="translate(-1 -2)"/><path d="M64.92,72a.6.6,0,0,1-.6-.59V68.68a3.85,3.85,0,0,0-3.85-3.85H54.06a3.85,3.85,0,0,0-3.86,3.85v2.73a.59.59,0,1,1-1.18,0V68.68a5,5,0,0,1,5-5h6.41a5,5,0,0,1,5,5v2.73A.6.6,0,0,1,64.92,72ZM43.87,72a.59.59,0,0,1-.59-.59V68.68a3.85,3.85,0,0,0-3.85-3.85H33a3.85,3.85,0,0,0-3.85,3.85v2.73a.6.6,0,0,1-1.19,0V68.68a5,5,0,0,1,5-5h6.42a5,5,0,0,1,5,5v2.73A.59.59,0,0,1,43.87,72ZM24.4,72a.6.6,0,0,1-.6-.59V68.68A3.85,3.85,0,0,0,20,64.83H13.53a3.85,3.85,0,0,0-3.85,3.85v2.73a.59.59,0,0,1-1.18,0V68.68a5,5,0,0,1,5-5H20a5,5,0,0,1,5,5v2.73A.6.6,0,0,1,24.4,72Zm32.75-9.13a4.76,4.76,0,1,1,4.76-4.75A4.76,4.76,0,0,1,57.15,62.87Zm-3.56-4.45a3.58,3.58,0,0,0,7.14-.3c0-.14,0-.27,0-.4A4.7,4.7,0,0,1,57.79,57,4.72,4.72,0,0,1,53.59,58.42Zm.09-1.18a3.54,3.54,0,0,0,3.53-1.38.59.59,0,0,1,.4-.23.61.61,0,0,1,.45.13,3.71,3.71,0,0,0,2.31.79,3.58,3.58,0,0,0-6.69.69ZM36.11,62.87a4.76,4.76,0,1,1,4.58-6,.2.2,0,0,1,0,.11,0,0,0,0,1,0,0,4.83,4.83,0,0,1,.14,1.15A4.76,4.76,0,0,1,36.11,62.87Zm-3.57-4.45a3.58,3.58,0,0,0,7.15-.3,2.6,2.6,0,0,0,0-.4A4.72,4.72,0,0,1,36.75,57,4.78,4.78,0,0,1,32.54,58.42Zm.1-1.18a3.59,3.59,0,0,0,3.54-1.38.57.57,0,0,1,.4-.23.59.59,0,0,1,.44.13,3.58,3.58,0,0,0,2.31.79,3.58,3.58,0,0,0-6.69.69Zm-16,5.63a4.76,4.76,0,1,1,4.76-4.75A4.76,4.76,0,0,1,16.63,62.87Zm-3.57-4.45a3.58,3.58,0,0,0,7.15-.3c0-.14,0-.27,0-.4A4.7,4.7,0,0,1,17.27,57,4.71,4.71,0,0,1,13.06,58.42Zm.1-1.18a3.55,3.55,0,0,0,3.53-1.38.59.59,0,0,1,.4-.23.58.58,0,0,1,.44.13,3.74,3.74,0,0,0,2.32.79,3.58,3.58,0,0,0-6.69.69Z" transform="translate(-1 -2)"/></svg>