<svg id="Capa_1" data-name="Capa 1" xmlns="http://www.w3.org/2000/svg" viewBox="0 0 57.29 67.68"><title>c</title><path d="M17.64,13.92A5.38,5.38,0,1,1,23,8.54,5.38,5.38,0,0,1,17.64,13.92Zm0-9.65a4.27,4.27,0,1,0,4.28,4.27A4.28,4.28,0,0,0,17.64,4.27Z" transform="translate(-8.36 -3.16)"/><path d="M25,30.53a2.17,2.17,0,0,1-2.17-2.16V26.43a.56.56,0,1,1,1.11,0v1.94A1.07,1.07,0,0,0,25,29.42a1.12,1.12,0,0,0,1-1.09V20.77a4.59,4.59,0,0,0-4.59-4.58H14.06a4.59,4.59,0,0,0-4.59,4.58v7.61a1,1,0,0,0,1,1,1.07,1.07,0,0,0,1.06-1.05V26.43a.55.55,0,0,1,.55-.56.56.56,0,0,1,.56.56v1.94a2.17,2.17,0,0,1-4.33,0V20.77a5.71,5.71,0,0,1,5.7-5.7h7.43a5.71,5.71,0,0,1,5.7,5.7v7.61A2.21,2.21,0,0,1,25,30.53Z" transform="translate(-8.36 -3.16)"/><path d="M23.42,33.57H12.13a.55.55,0,0,1-.55-.56V24.37a.55.55,0,0,1,.55-.56.56.56,0,0,1,.56.56v8.08H22.86V24.37a.56.56,0,1,1,1.11,0V33A.56.56,0,0,1,23.42,33.57Z" transform="translate(-8.36 -3.16)"/><path d="M17.77,25.82a.56.56,0,0,1-.55-.56V18.64H15.94a.56.56,0,0,1,0-1.12h3.67a.56.56,0,0,1,0,1.12H18.33v6.62A.56.56,0,0,1,17.77,25.82Z" transform="translate(-8.36 -3.16)"/><path d="M49.19,51.2a5.39,5.39,0,1,1,5.38-5.38A5.39,5.39,0,0,1,49.19,51.2Zm0-9.65a4.27,4.27,0,1,0,4.27,4.27A4.28,4.28,0,0,0,49.19,41.55Z" transform="translate(-8.36 -3.16)"/><path d="M45.94,46.11a5.37,5.37,0,0,1-1.74-.28.56.56,0,0,1,.36-1.06,4.3,4.3,0,0,0,1.38.23,4.22,4.22,0,0,0,3.42-1.71.55.55,0,0,1,.37-.22.54.54,0,0,1,.42.12,4.4,4.4,0,0,0,3.6.85A.56.56,0,0,1,54,45.13a5.51,5.51,0,0,1-4.07-.75A5.42,5.42,0,0,1,45.94,46.11Z" transform="translate(-8.36 -3.16)"/><path d="M56.56,67.81a2.17,2.17,0,0,1-2.16-2.17V63.71a.56.56,0,0,1,1.12,0v1.93a1.06,1.06,0,0,0,1,1.06,1.11,1.11,0,0,0,1.06-1.1V58.05A4.6,4.6,0,0,0,53,53.46H45.6A4.6,4.6,0,0,0,41,58.05v7.61a1,1,0,0,0,1.05,1,1.06,1.06,0,0,0,1-1.06V63.71a.56.56,0,0,1,.56-.56.55.55,0,0,1,.55.56v1.93a2.16,2.16,0,0,1-4.32,0V58.05a5.71,5.71,0,0,1,5.7-5.7H53a5.71,5.71,0,0,1,5.7,5.7v7.61A2.22,2.22,0,0,1,56.56,67.81Z" transform="translate(-8.36 -3.16)"/><path d="M55,70.84H43.67a.56.56,0,0,1-.56-.55V61.64a.56.56,0,0,1,.56-.55.55.55,0,0,1,.55.55v8.09H54.4V61.64a.56.56,0,0,1,1.12,0v8.65A.56.56,0,0,1,55,70.84Z" transform="translate(-8.36 -3.16)"/><path d="M49.31,63.1a.55.55,0,0,1-.55-.56V55.91H47.49a.55.55,0,0,1-.56-.55.56.56,0,0,1,.56-.56h3.65a.56.56,0,0,1,.56.56.55.55,0,0,1-.56.55H49.87v6.63A.56.56,0,0,1,49.31,63.1Z" transform="translate(-8.36 -3.16)"/><path d="M37.93,38.71a.52.52,0,0,1-.27-.07.55.55,0,0,1-.28-.57L38.5,30.4h-5a.56.56,0,0,1-.55-.56V9.5A.55.55,0,0,1,33.54,9H65.09a.55.55,0,0,1,.55.55V29.84a.56.56,0,0,1-.55.56H48l-9.73,8.18A.61.61,0,0,1,37.93,38.71ZM34.1,29.29h5a.57.57,0,0,1,.42.19.58.58,0,0,1,.13.44l-1,6.87,8.77-7.37a.53.53,0,0,1,.36-.13H64.53V10.06H34.1Z" transform="translate(-8.36 -3.16)"/><path d="M53.09,13.48H39.19a.56.56,0,0,1,0-1.11h13.9a.56.56,0,1,1,0,1.11Z" transform="translate(-8.36 -3.16)"/><path d="M59.44,13.48H56a.56.56,0,1,1,0-1.11h3.49a.56.56,0,1,1,0,1.11Z" transform="translate(-8.36 -3.16)"/><path d="M14.46,8.84a5.37,5.37,0,0,1-1.73-.29.56.56,0,1,1,.36-1.05A4.3,4.3,0,0,0,17.88,6a.57.57,0,0,1,.38-.22.57.57,0,0,1,.42.12,4.24,4.24,0,0,0,2.68,1,4.29,4.29,0,0,0,.9-.09.55.55,0,1,1,.23,1.08A5.09,5.09,0,0,1,21.36,8a5.46,5.46,0,0,1-2.93-.87A5.36,5.36,0,0,1,14.46,8.84Z" transform="translate(-8.36 -3.16)"/><path d="M34.79,63.63H17.07a.56.56,0,0,1-.56-.56V35.3a.56.56,0,1,1,1.11,0V62.52H34.79a.56.56,0,1,1,0,1.11Z" transform="translate(-8.36 -3.16)"/><path d="M59.44,16.67H45.54a.56.56,0,1,1,0-1.12h13.9a.56.56,0,1,1,0,1.12Z" transform="translate(-8.36 -3.16)"/><path d="M42.69,16.67h-3.5a.56.56,0,0,1,0-1.12h3.5a.56.56,0,0,1,0,1.12Z" transform="translate(-8.36 -3.16)"/><path d="M53.09,19.86H39.19a.56.56,0,0,1-.55-.56.55.55,0,0,1,.55-.55h13.9a.55.55,0,0,1,.56.55A.56.56,0,0,1,53.09,19.86Z" transform="translate(-8.36 -3.16)"/><path d="M59.44,19.86H56a.56.56,0,0,1-.56-.56.55.55,0,0,1,.56-.55h3.49a.55.55,0,0,1,.56.55A.56.56,0,0,1,59.44,19.86Z" transform="translate(-8.36 -3.16)"/><path d="M59.44,23H45.54a.56.56,0,1,1,0-1.11h13.9a.56.56,0,1,1,0,1.11Z" transform="translate(-8.36 -3.16)"/><path d="M42.69,23h-3.5a.56.56,0,0,1,0-1.11h3.5a.56.56,0,1,1,0,1.11Z" transform="translate(-8.36 -3.16)"/><path d="M53.09,26.23H39.19a.56.56,0,0,1,0-1.11h13.9a.56.56,0,1,1,0,1.11Z" transform="translate(-8.36 -3.16)"/><path d="M59.44,26.23H56a.56.56,0,1,1,0-1.11h3.49a.56.56,0,1,1,0,1.11Z" transform="translate(-8.36 -3.16)"/></svg>