<svg id="Capa_1" data-name="Capa 1" xmlns="http://www.w3.org/2000/svg" viewBox="0 0 49.66 69"><title>d</title><path d="M61.26,71.5H12.74a.57.57,0,0,1-.57-.57V43.59a.58.58,0,0,1,.57-.57H61.26a.58.58,0,0,1,.57.57V70.93A.57.57,0,0,1,61.26,71.5ZM13.31,70.37H60.69V44.16H13.31Z" transform="translate(-12.17 -2.5)"/><path d="M61.26,51.25a7.66,7.66,0,0,1-7.65-7.66.57.57,0,0,1,.56-.57h7.09a.58.58,0,0,1,.57.57v7.09A.58.58,0,0,1,61.26,51.25Zm-6.5-7.09a6.55,6.55,0,0,0,5.93,5.93V44.16Z" transform="translate(-12.17 -2.5)"/><path d="M12.74,51.25a.58.58,0,0,1-.57-.57V43.59a.58.58,0,0,1,.57-.57h7.09a.58.58,0,0,1,.57.57A7.67,7.67,0,0,1,12.74,51.25Zm.57-7.09v5.93a6.54,6.54,0,0,0,5.93-5.93Z" transform="translate(-12.17 -2.5)"/><path d="M19.85,71.5H12.74a.57.57,0,0,1-.57-.57V63.84a.58.58,0,0,1,.57-.57,7.68,7.68,0,0,1,7.66,7.52.61.61,0,0,1,0,.14A.56.56,0,0,1,19.85,71.5Zm-6.54-1.13h5.93a6.55,6.55,0,0,0-5.93-5.94Z" transform="translate(-12.17 -2.5)"/><path d="M61.26,71.5H54.17a.56.56,0,0,1-.56-.57,7.66,7.66,0,0,1,7.65-7.66.58.58,0,0,1,.57.57v7.09A.57.57,0,0,1,61.26,71.5Zm-6.5-1.13h5.93V64.43A6.56,6.56,0,0,0,54.76,70.37Z" transform="translate(-12.17 -2.5)"/><path d="M37,66a8.69,8.69,0,1,1,8.68-8.69A8.69,8.69,0,0,1,37,66Zm0-16.24a7.55,7.55,0,1,0,7.55,7.55A7.56,7.56,0,0,0,37,49.71Z" transform="translate(-12.17 -2.5)"/><path d="M37.39,59.84a1.13,1.13,0,0,0,.65-.38,1,1,0,0,0,.25-.69.88.88,0,0,0-.21-.6,1.35,1.35,0,0,0-.69-.41Zm-.77-5.65a1,1,0,0,0-.49.37,1,1,0,0,0-.18.57.88.88,0,0,0,.16.51,1.17,1.17,0,0,0,.51.4Zm0,5.56V57.54a2.93,2.93,0,0,1-1.52-.9,2.27,2.27,0,0,1-.48-1.46,2.08,2.08,0,0,1,.55-1.45,2.14,2.14,0,0,1,1.45-.68v-.53h.77v.53a2.3,2.3,0,0,1,1.34.57,2.19,2.19,0,0,1,.65,1.27L38,55.07a1.07,1.07,0,0,0-.64-.85v2.07a3.42,3.42,0,0,1,1.74.89,2.08,2.08,0,0,1,.46,1.41A2.34,2.34,0,0,1,39,60.2a2.68,2.68,0,0,1-1.62.82v1h-.77V61a2.52,2.52,0,0,1-1.49-.68,2.88,2.88,0,0,1-.73-1.6l1.38-.16a1.82,1.82,0,0,0,.32.72A1.32,1.32,0,0,0,36.62,59.75Z" transform="translate(-12.17 -2.5)" fill="none"/><path d="M44.19,39.09a32.8,32.8,0,0,1-6.38-.68.55.55,0,0,1-.44-.44c-1.6-8-.38-14.26,3.52-18.15,2.79-2.79,6.75-4.2,11.76-4.2a33.62,33.62,0,0,1,6.38.67.58.58,0,0,1,.44.45c1.6,8,.38,14.25-3.52,18.14C53.16,37.67,49.2,39.09,44.19,39.09ZM38.4,37.37a31.11,31.11,0,0,0,5.79.58c4.7,0,8.39-1.3,11-3.87,3.56-3.55,4.69-9.34,3.28-16.75a31.87,31.87,0,0,0-5.78-.58c-4.7,0-8.39,1.31-11,3.87C38.13,24.18,37,30,38.4,37.37Z" transform="translate(-12.17 -2.5)"/><path d="M32.09,39.23h0c-3.49,0-6.25-1-8.19-2.93-2.71-2.71-3.56-7.06-2.47-12.59a.59.59,0,0,1,.45-.45,23.35,23.35,0,0,1,4.4-.46c3.49,0,6.24,1,8.19,2.93,2.71,2.71,3.56,7.07,2.46,12.59a.58.58,0,0,1-.44.45A23.52,23.52,0,0,1,32.09,39.23ZM22.47,24.31c-.91,5-.14,8.82,2.23,11.18,1.73,1.73,4.21,2.61,7.39,2.61h0a20.9,20.9,0,0,0,3.8-.38c.92-4.95.15-8.82-2.22-11.19S27.42,23.39,22.47,24.31Z" transform="translate(-12.17 -2.5)"/><path d="M37.92,38.42a.54.54,0,0,1-.39-.16.57.57,0,0,1,0-.8L51.58,22.78a.57.57,0,0,1,.8,0,.56.56,0,0,1,0,.8L38.33,38.25A.58.58,0,0,1,37.92,38.42Z" transform="translate(-12.17 -2.5)"/><path d="M37,44.16a.58.58,0,0,1-.57-.57V13.24a.56.56,0,0,1,.57-.57.57.57,0,0,1,.57.57V43.59A.58.58,0,0,1,37,44.16Z" transform="translate(-12.17 -2.5)"/><path d="M46.63,29.34a.57.57,0,0,1-.56-.53l-.65-8a.56.56,0,1,1,1.12-.09l.66,8a.57.57,0,0,1-.52.61Z" transform="translate(-12.17 -2.5)"/><path d="M41.25,35a.55.55,0,0,1-.56-.47.57.57,0,0,1,.47-.65l8.63-1.37A.57.57,0,1,1,50,33.58L41.34,35Z" transform="translate(-12.17 -2.5)"/><path d="M36.38,38.78A.55.55,0,0,1,36,38.6L26.26,28.49a.56.56,0,0,1,0-.8.57.57,0,0,1,.8,0l9.7,10.12a.57.57,0,0,1,0,.8A.59.59,0,0,1,36.38,38.78Z" transform="translate(-12.17 -2.5)"/><path d="M25.6,32.94a.57.57,0,0,1-.2-1.1L29,30.48a.57.57,0,0,1,.4,1.07L25.8,32.9A.79.79,0,0,1,25.6,32.94Z" transform="translate(-12.17 -2.5)"/><path d="M33.16,35.42h0a.57.57,0,0,1-.53-.6l.35-5.38a.57.57,0,1,1,1.13.08l-.34,5.37A.57.57,0,0,1,33.16,35.42Z" transform="translate(-12.17 -2.5)"/><path d="M16.55,23.58A2.59,2.59,0,1,1,19.16,21,2.59,2.59,0,0,1,16.55,23.58Zm0-4A1.46,1.46,0,1,0,18,21,1.46,1.46,0,0,0,16.55,19.53Z" transform="translate(-12.17 -2.5)"/><path d="M57.37,9.32A2.6,2.6,0,1,1,60,6.73,2.6,2.6,0,0,1,57.37,9.32Zm0-4.05a1.46,1.46,0,1,0,1.45,1.46A1.46,1.46,0,0,0,57.37,5.27Z" transform="translate(-12.17 -2.5)"/><path d="M34,14.68h0a8.16,8.16,0,0,1-6-2.16c-2-2-2.63-5.19-1.83-9.24a.57.57,0,0,1,.45-.44c4-.8,7.24-.17,9.24,1.82s2.62,5.19,1.82,9.24a.57.57,0,0,1-.45.44A16.17,16.17,0,0,1,34,14.68ZM27.21,3.88c-.61,3.47-.07,6.18,1.59,7.84A7.12,7.12,0,0,0,34,13.55h0a14.55,14.55,0,0,0,2.62-.25c.62-3.48.07-6.18-1.58-7.84S30.68,3.26,27.21,3.88Z" transform="translate(-12.17 -2.5)"/><path d="M37.12,14.36a.55.55,0,0,1-.41-.18l-4.9-5.12a.57.57,0,1,1,.81-.79l4.91,5.13a.56.56,0,0,1,0,.8A.59.59,0,0,1,37.12,14.36Z" transform="translate(-12.17 -2.5)"/></svg>